<svg version="1.1" id="Layer_1" xmlns="http://www.w3.org/2000/svg" xmlns:xlink="http://www.w3.org/1999/xlink" x="0px" y="0px"
	 width="100%" viewBox="0 0 126 90" enable-background="new 0 0 126 90" xml:space="preserve">
<path fill="#E21D86" opacity="1.000000" stroke="none" 
	d="
M64.000000,0.999999 
	C64.000000,1.000000 64.500000,1.000000 64.757614,1.361591 
	C85.676811,31.148788 106.338409,60.574394 127.000000,90.000000 
	C125.675293,90.333328 124.351212,90.954597 123.025787,90.957466 
	C96.663055,91.014473 70.300171,91.000000 43.449524,90.735870 
	C42.944866,90.295998 42.928005,90.120262 42.950809,89.550629 
	C47.689011,69.245819 52.447632,49.348816 57.059193,29.417782 
	C59.173824,20.278378 60.999493,11.072113 62.963799,1.937990 
	C62.971397,1.979810 62.886494,1.984061 63.122490,1.883927 
	C63.572319,1.522528 63.786160,1.261263 64.000000,0.999999 
z"/>
<path fill="#FFFFFF" opacity="1.000000" stroke="none" 
	d="
M127.000000,89.531342 
	C106.338409,60.574394 85.676811,31.148788 65.007614,1.361591 
	C85.606613,1.000000 106.213226,1.000000 127.000000,1.000000 
	C127.000000,30.353983 127.000000,59.708332 127.000000,89.531342 
z"/>
<path fill="#FFFFFF" opacity="1.000000" stroke="none" 
	d="
M1.000000,89.000000 
	C1.000000,59.752464 1.000000,30.504932 1.000000,1.000000 
	C21.353504,1.000000 41.708096,1.000000 62.536449,1.249878 
	C63.010216,1.499755 62.886494,1.984061 62.886494,1.984061 
	C62.886494,1.984061 62.971397,1.979810 62.651653,2.092908 
	C56.179230,10.977914 50.059570,19.773216 43.865780,28.516003 
	C35.498642,40.326565 26.985537,52.034691 18.705444,63.905617 
	C12.965661,72.134575 7.513234,80.563972 1.699841,88.932999 
	C1.467267,88.962189 1.000000,89.000000 1.000000,89.000000 
z"/>
<path fill="#BD1E63" opacity="1.000000" stroke="none" 
	d="
M1.000000,89.500000 
	C1.000000,89.000000 1.467267,88.962189 1.985570,89.248566 
	C15.972962,89.671463 29.442051,89.807991 42.911140,89.944519 
	C42.928005,90.120262 42.944866,90.295998 42.980865,90.735870 
	C29.833334,91.000000 16.666584,91.018173 3.500201,90.957146 
	C2.665340,90.953270 1.833334,90.333336 1.000000,89.500000 
z"/>
<path fill="#A2214C" opacity="1.000000" stroke="none" 
	d="
M63.122490,1.883927 
	C62.886494,1.984061 63.010216,1.499755 63.005108,1.249878 
	C63.000000,1.000000 63.500000,1.000000 63.750000,0.999999 
	C63.786160,1.261263 63.572319,1.522528 63.122490,1.883927 
z"/>
<path fill="#A2214C" opacity="1.000000" stroke="none" 
	d="
M42.950809,89.550621 
	C29.442051,89.807991 15.972962,89.671463 2.218144,89.219376 
	C7.513234,80.563972 12.965661,72.134575 18.705444,63.905617 
	C26.985537,52.034691 35.498642,40.326565 43.865780,28.516003 
	C50.059570,19.773216 56.179230,10.977914 62.644058,2.051088 
	C60.999493,11.072113 59.173824,20.278378 57.059193,29.417782 
	C52.447632,49.348816 47.689011,69.245819 42.950809,89.550621 
z"/>
</svg>